<?xml version="1.0" encoding="utf-8"?>
<!-- Generator: Adobe Illustrator 18.1.1, SVG Export Plug-In . SVG Version: 6.00 Build 0)  -->
<svg version="1.1" id="Layer_1" xmlns="http://www.w3.org/2000/svg" xmlns:xlink="http://www.w3.org/1999/xlink" x="0px" y="0px"
	 viewBox="0 0 145 55" enable-background="new 0 0 145 55" xml:space="preserve">
<g>
	<g>
		<g>
			<path fill="#FF4833" d="M22,41.4l-6.2-9.3l-6.3,9.3h-8l9.7-14.1L2,14h8.1l5.7,8.5l5.6-8.5h8.1l-9.2,13.3l9.8,14.1H22z"/>
			<path fill="#FF4833" d="M29.5,6.7c0-2.4,2-4.3,4.3-4.3c2.4,0,4.3,1.9,4.3,4.3c0,2.4-1.9,4.3-4.3,4.3C31.5,11,29.5,9.1,29.5,6.7z
				 M30.3,41.4V14h7.2v27.4H30.3z"/>
			<path fill="#FF4833" d="M48.9,41.4L37.9,14h7.7l7.2,19.1L59.9,14h7.8l-11,27.4H48.9z"/>
			<path fill="#FF4833" d="M65.2,27.7c0-8,5.8-14.4,14.2-14.4c8.2,0,13.7,6.1,13.7,15.1V30H72.7c0.5,3.5,3.2,6.4,7.9,6.4
				c2.3,0,5.6-1,7.3-2.7l3.2,4.7c-2.7,2.5-7,3.8-11.3,3.8C71.5,42.1,65.2,36.5,65.2,27.7z M79.4,19c-4.5,0-6.4,3.4-6.8,6.1h13.5
				C86,22.5,84.1,19,79.4,19z"/>
			<path fill="#FF4833" d="M94.4,41.4V3.5h7.2v37.9H94.4z"/>
			<path fill="#FF4833" d="M106,45.9c0.6,0.2,1.6,0.2,2.3,0.2c1.9,0,3.1-0.5,3.8-2l1-2.3L102,14h7.7l7.2,19.1L124,14h7.8l-12.9,31.9
				c-2,5.2-5.7,6.5-10.4,6.6c-0.9,0-1.6,0-2.5-0.3L106,45.9z"/>
		</g>
		<g>
			<path fill="#FF4833" d="M136.3,7.3v4.5h-0.7V7.3h-1.4V6.7h3.5v0.6H136.3z M142.9,11.8V7.6l-1.7,4.2h-0.2l-1.7-4.2v4.2h-0.7V6.7h1
				l1.5,3.7l1.5-3.7h1v5.1H142.9z"/>
		</g>
	</g>
</g>
</svg>
